<svg xmlns="http://www.w3.org/2000/svg" width="500" height="400" viewBox="0 0 500 400">
  <defs>
    <linearGradient id="bg" x1="0%" y1="0%" x2="100%" y2="100%">
      <stop offset="0%" style="stop-color:#3B82F6;stop-opacity:1" />
      <stop offset="100%" style="stop-color:#1D4ED8;stop-opacity:1" />
    </linearGradient>
    <linearGradient id="cardBg" x1="0%" y1="0%" x2="100%" y2="100%">
      <stop offset="0%" style="stop-color:#FFFFFF;stop-opacity:0.15" />
      <stop offset="100%" style="stop-color:#FFFFFF;stop-opacity:0.05" />
    </linearGradient>
  </defs>
  
  <rect width="500" height="400" rx="24" fill="url(#bg)"/>
  
  <circle cx="420" cy="60" r="120" fill="#2563EB" opacity="0.3"/>
  <circle cx="80" cy="340" r="90" fill="#1E40AF" opacity="0.25"/>
  
  <text x="250" y="95" text-anchor="middle" font-family="system-ui,-apple-system,sans-serif" font-size="48" font-weight="800" fill="#FFFFFF">🧰 百宝工具箱</text>
  
  <rect x="75" y="125" width="350" height="180" rx="20" fill="url(#cardBg)" stroke="rgba(255,255,255,0.2)" stroke-width="1.5"/>
  
  <g font-family="system-ui,-apple-system,sans-serif">
    <g transform="translate(105,160)">
      <rect width="80" height="70" rx="14" fill="rgba(255,255,255,0.12)"/>
      <text x="40" y="32" text-anchor="middle" font-size="28">💱</text>
      <text x="40" y="56" text-anchor="middle" font-size="13" fill="rgba(255,255,255,0.85)">汇率换算</text>
    </g>
    <g transform="translate(210,160)">
      <rect width="80" height="70" rx="14" fill="rgba(255,255,255,0.12)"/>
      <text x="40" y="32" text-anchor="middle" font-size="28">📐</text>
      <text x="40" y="56" text-anchor="middle" font-size="13" fill="rgba(255,255,255,0.85)">尺寸调整</text>
    </g>
    <g transform="translate(315,160)">
      <rect width="80" height="70" rx="14" fill="rgba(255,255,255,0.12)"/>
      <text x="40" y="32" text-anchor="middle" font-size="28">🖼️</text>
      <text x="40" y="56" text-anchor="middle" font-size="13" fill="rgba(255,255,255,0.85)">图片处理</text>
    </g>
    <g transform="translate(105,245)">
      <rect width="80" height="70" rx="14" fill="rgba(255,255,255,0.12)"/>
      <text x="40" y="32" text-anchor="middle" font-size="28">#️⃣</text>
      <text x="40" y="56" text-anchor="middle" font-size="13" fill="rgba(255,255,255,0.85)">字数统计</text>
    </g>
    <g transform="translate(210,245)">
      <rect width="80" height="70" rx="14" fill="rgba(255,255,255,0.12)"/>
      <text x="40" y="32" text-anchor="middle" font-size="28">🔗</text>
      <text x="40" y="56" text-anchor="middle" font-size="13" fill="rgba(255,255,255,0.85)">URL编解码</text>
    </g>
    <g transform="translate(315,245)">
      <rect width="80" height="70" rx="14" fill="rgba(255,255,255,0.12)"/>
      <text x="40" y="32" text-anchor="middle" font-size="28">⏰</text>
      <text x="40" y="56" text-anchor="middle" font-size="13" fill="rgba(255,255,255,0.85)">日期计算</text>
    </g>
  </g>
  
  <text x="250" y="340" text-anchor="middle" font-family="system-ui,-apple-system,sans-serif" font-size="22" font-weight="600" fill="rgba(255,255,255,0.9">24+ 实用小工具 · 即用即走 · 轻量高效</text>
  
  <text x="250" y="372" text-anchor="middle" font-family="system-ui,-apple-system,sans-serif" font-size="14" fill="rgba(255,255,255,0.55)">计算转换 · 文本处理 · 生活助手 · 开发调试</text>
</svg>